<?xml version="1.0" encoding="UTF-8"?>
<svg id="Layer_1" data-name="Layer 1" xmlns="http://www.w3.org/2000/svg" viewBox="0 0 303.23 360.7">
  <defs>
    <style>
      .cls-1 {
        fill: #fff;
      }

      .cls-1, .cls-2 {
        stroke-width: 0px;
      }

      .cls-2 {
        fill: #7048b9;
      }
    </style>
  </defs>
  <rect class="cls-2" width="303.23" height="360.7" rx="44.17" ry="44.17"/>
  <path class="cls-1" d="m163.62,347.52c0-13.33-.13-26.42.06-39.5.08-5.63-1.94-9.76-6.52-13.04-7.51-5.38-14.78-11.09-22.24-16.55-1.63-1.19-2.09-2.31-1.77-4.36,2.59-16.12-8.4-30.79-25.12-33.74-15.2-2.68-30.68,8.07-33.75,23.43-3.23,16.18,6.72,31.78,22.49,35.33,6.45,1.45,12.73.94,18.65-1.89,2.3-1.1,3.75-.8,5.65.69,5.4,4.25,11.01,8.21,16.42,12.45,1.01.79,2.01,2.34,2.03,3.55.15,11.1.09,22.2.09,33.9h-4.05c-30.13,0-60.26.01-90.39,0-15.5-.01-25.57-10.06-25.58-25.54-.02-46.92-.02-93.84,0-140.77,0-15.24,10.13-25.37,25.36-25.37,71.13-.02,142.27-.02,213.4,0,15.04,0,25.26,10.13,25.27,25.09.03,47.17.03,94.34,0,141.52-.01,14.79-10.21,25.02-24.92,25.07-15.5.05-30.99.01-47.08.01,0-1.31,0-2.49,0-3.68,0-26.46.03-52.91-.06-79.37,0-2.44.72-3.66,2.89-4.88,12-6.77,17.65-20.49,14.13-33.63-3.51-13.11-15.44-22.23-29.04-22.2-13.54.02-25.57,9.31-28.96,22.34-3.43,13.2,2.28,26.74,14.29,33.6,1.74.99,2.81,1.84,2.8,4.17-.1,27.2-.07,54.41-.07,81.61,0,.49-.07.98-.12,1.76h-23.88Z"/>
  <path class="cls-1" d="m91.6,131.97h-35.44c-3.42-35.86,2.31-68.86,30.47-94.1,27.73-24.85,60.14-32.21,95.45-20.31,35.56,11.99,57.19,37.53,63.85,74.46,2.32,12.88,1.65,26.3,2.36,39.82h-36.67c0-7.22.29-14.55-.09-21.83-.32-6.06-.73-12.27-2.3-18.09-7.33-27.23-33.69-45.57-61.94-43.53-28.14,2.03-51.43,23.81-55.03,51.57-.43,3.33-.59,6.71-.63,10.06-.09,7.21-.03,14.43-.03,21.95Z"/>
</svg>