<?xml version="1.0" encoding="UTF-8"?>
<svg id="Layer_1" data-name="Layer 1" xmlns="http://www.w3.org/2000/svg" viewBox="0 0 335.98 304.03">
  <defs>
    <style>
      .cls-1 {
        opacity: .25;
      }

      .cls-1, .cls-2, .cls-3, .cls-4, .cls-5, .cls-6, .cls-7, .cls-8 {
        stroke-width: 0px;
      }

      .cls-1, .cls-2, .cls-7 {
        fill: #9b9797;
        isolation: isolate;
      }

      .cls-2 {
        opacity: .24;
      }

      .cls-3 {
        fill: #8367d4;
      }

      .cls-4 {
        fill-rule: evenodd;
      }

      .cls-6 {
        fill: #fff;
      }

      .cls-7 {
        opacity: .18;
      }

      .cls-8 {
        fill: #e8e8e8;
      }
    </style>
  </defs>
  <path class="cls-8" d="m.61,249.66c2.93-1.44,4.18-5.25,7.36-6.24,3.27-1.02,6.89.99,9.88-1.21,1.3-.97,2.27-2.57,3.85-3.15,1.38-.5,2.82.06,4.15.47,1.13.36,2.27.69,3.4,1.05,4.57,1.41,9.1,2.79,13.67,4.2,5.17,1.57,10.32,3.18,15.5,4.75.5.17.72-.63.22-.8-9.46-2.9-18.9-5.8-28.36-8.7-2.21-.66-4.51-1.68-6.81-1.96-1.61-.19-2.88.44-4.01,1.49-1.58,1.46-2.77,2.82-5.06,2.93-1.91.11-3.79-.39-5.7-.08-3.93.61-5.15,4.89-8.47,6.52-.5.28-.08.99.39.74Z"/>
  <path class="cls-8" d="m50.34,246.18c1.96.5,3.51-1.46,5.29-2.04,2.38-.8,4.93-.47,7.08.77.47.28.89-.44.42-.72-1.83-1.08-3.9-1.52-6-1.24-.91.11-1.77.36-2.6.72-1.19.52-2.57,2.04-3.96,1.71-.53-.14-.75.66-.22.8Z"/>
  <path class="cls-8" d="m71.67,244.11c-1.85-1.52-3.62-3.15-5.29-4.89-.77-.8-1.52-1.66-2.24-2.51-.42-.5-.83-.99-1.22-1.49-.28-.36-.55-.72-.8-1.08-.44-.44-.44-.99.03-1.6.33.14.86-.19.58-.58-1.69-2.26-2.93-4.75-3.74-7.46-.17.17-.33.33-.5.5.91.25,1.58.72,2.08,1.49.28.44,1,.06.72-.41-4.12-7.12-7.5-14.64-10.04-22.45-.22.14-.47.28-.69.41,11.59,11.38,16.85,27.2,26.62,39.93.33.41,1.05,0,.72-.41-9.8-12.79-15.11-28.66-26.76-40.1-.28-.28-.83,0-.69.41,2.57,7.9,5.95,15.47,10.13,22.64.25-.14.47-.28.72-.41-.64-.97-1.47-1.6-2.57-1.88-.3-.08-.61.19-.5.5.83,2.76,2.1,5.33,3.82,7.65.19-.19.39-.39.58-.58-.77-.36-1.63,0-1.83.91-.25,1.3,1.33,2.73,2.05,3.65,2.46,3.07,5.26,5.85,8.3,8.34.36.33.94-.25.53-.58Z"/>
  <path class="cls-8" d="m68.77,226.85c-5.09-7.59-9.21-15.74-12.26-24.36-.08.16-.19.33-.28.5.94-.22,1.74.14,2.27.97.28.47.94.06.72-.41-4.29-9.25-8.66-18.89-8.36-29.3-.25.08-.53.14-.77.22,7.39,15.19,14.42,30.57,21.06,46.09.19.44.91.11.75-.33-1.11-3.31-2.19-6.65-3.29-9.97-.53-1.63-1.08-3.23-1.6-4.86-.36-1.08-1.13-3.42.42-4-.17-.05-.3-.14-.47-.19,1.99,3.89,3.96,7.79,5.95,11.68.25.47.97.05.72-.41-2.16-4.23-3.15-8.89-2.96-13.64-.28.03-.55.08-.8.11,5.76,14.28,12.42,28.19,19.92,41.64.25.47.97.05.72-.41-7.47-13.39-14.11-27.23-19.84-41.45-.17-.41-.8-.39-.8.11-.19,4.89.86,9.66,3.07,14.06.25-.14.47-.28.72-.41-1.99-3.89-3.96-7.79-5.95-11.68-.08-.14-.3-.25-.47-.19-2.77,1.02-1,4.97-.39,6.82,1.44,4.34,2.85,8.7,4.29,13.03.25-.11.5-.22.75-.33-6.64-15.52-13.67-30.9-21.06-46.09-.19-.39-.77-.16-.77.22-.33,10.55,4.12,20.35,8.47,29.71.25-.14.47-.28.72-.41-.72-1.13-1.88-1.63-3.21-1.35-.22.05-.36.3-.28.5,3.07,8.67,7.22,16.9,12.34,24.55.28.47,1,.06.69-.39Z"/>
  <path class="cls-8" d="m14.09,280.23c9.57-4.61,19.67-9.31,30.6-8.2,5.17.52,10.18,2.02,15.33,2.68,2.6.33,5.23.47,7.83.17,2.44-.3,4.73-1.19,7.11-1.71,3.07-.69,5.87.03,8.83.86,2.44.66,4.84,1.22,7.36.64.53-.11.3-.91-.22-.8-5.04,1.19-9.77-2.43-14.86-1.71-2.52.36-4.87,1.35-7.36,1.8-2.63.44-5.31.39-7.97.05-5.23-.61-10.32-2.15-15.58-2.73-5.17-.58-10.29.08-15.25,1.52-5.64,1.66-10.99,4.2-16.24,6.74-.5.22-.06.94.42.72Z"/>
  <path class="cls-8" d="m70.26,303.12c3.24-1.38,6.42-2.9,9.49-4.61,1.6-.91,3.18-1.85,4.76-2.84,1.41-.91,2.82-2.21,4.37-2.87,1.74-.72,4.37.64,6.12,1.16,1.85.58,3.71,1.13,5.53,1.71,3.79,1.16,7.58,2.32,11.35,3.48.5.17.72-.64.22-.8-4.04-1.24-8.11-2.48-12.15-3.73-1.94-.61-3.87-1.19-5.81-1.79-1.49-.47-3.38-1.44-4.95-1.05-1.47.36-2.79,1.63-4.04,2.46-1.6,1.05-3.27,2.07-4.93,3.04-3.35,1.91-6.81,3.62-10.38,5.11-.5.22-.06.94.42.74Z"/>
  <path class="cls-8" d="m104.68,303.98c2.1-1.05,4.21-2.13,6.31-3.18,1.94-.99,4.01-2.32,6.23-2.51,2.24-.22,3.99,1.24,5.92,2.1,1.63.72,3.4,1.13,5.17,1.24,4.15.22,8.02-1.85,12.15-1.63,3.29.19,6.61,2.9,9.85,1.19.47-.25.06-.97-.41-.72-2.02,1.08-4.21.03-6.2-.61-1.71-.55-3.38-.8-5.17-.61-4.26.44-8.16,2.24-12.54,1.21-3.62-.83-6.39-3.84-10.29-2.71-1.8.52-3.49,1.52-5.15,2.35-2.1,1.05-4.21,2.13-6.31,3.18-.44.22-.03.94.44.69Z"/>
  <path class="cls-8" d="m120.84,297.99c-1.72-1.49-3.26-3.15-4.54-5.05-.58-.86-1.11-1.77-1.61-2.68-.25-.47-.47-.94-.66-1.41-.17-.39-.33-.75-.47-1.13-.25-.42-.14-.8.33-1.16.25-.11.5-.22.75-.33-3.04-4.47-4.95-9.55-5.59-14.91-.25.11-.47.19-.72.3.5.63,1,1.27,1.52,1.93.3.39.89-.11.66-.5-4.81-8.59-7.39-18.25-7.44-28.08-.25.11-.47.19-.72.3,1.88,1.52,3.32,3.4,4.21,5.63.25-.11.5-.22.75-.33-2.16-4.56-2.6-9.69-1.33-14.55h-.8c5.67,16.21,11.32,32.39,16.99,48.6.17.5.97.28.8-.22-2.85-8.31-4.26-17.04-4.18-25.85-.25.11-.47.19-.72.3,1.69,1.52,2.74,3.42,3.13,5.66.08.47.83.36.8-.11-.08-1.68-.19-3.4-.28-5.08-.22.11-.42.25-.64.36,1.47.94,1.74,3.42,2.21,4.97.5,1.66,1,3.31,1.52,5,1.02,3.42,2.08,6.82,3.1,10.24,2.07,6.82,4.15,13.67,6.23,20.49.17.5.97.3.8-.22-2.24-7.35-4.46-14.72-6.7-22.06-1.08-3.59-2.19-7.18-3.26-10.77-.55-1.85-1.11-3.67-1.66-5.52-.36-1.13-.77-2.15-1.8-2.82-.25-.17-.64.05-.64.36.08,1.68.19,3.4.28,5.08.28-.03.55-.08.8-.11-.39-2.38-1.55-4.45-3.35-6.05-.28-.25-.69-.08-.72.3-.08,8.86,1.33,17.67,4.21,26.07.28-.08.53-.14.8-.22-5.67-16.21-11.32-32.39-16.99-48.6-.14-.36-.69-.41-.8,0-1.33,5.11-.83,10.44,1.41,15.19.19.41.94.11.75-.33-.94-2.38-2.41-4.39-4.43-5.99-.28-.22-.72-.08-.72.3.06,9.97,2.66,19.8,7.56,28.5.22-.16.44-.33.66-.5-.5-.64-1-1.27-1.52-1.93-.22-.28-.75-.05-.72.3.64,5.52,2.57,10.74,5.7,15.33.28.39.83.14.75-.33-.14-.77-1.05-1.05-1.69-.58-1.16.83-.03,2.79.39,3.73,1.58,3.51,3.93,6.57,6.84,9.09.58.3,1.16-.28.75-.61Z"/>
  <path class="cls-8" d="m91.9,236.05c-.36-5.19,9.08-2.21,11.71-1.71,4.32.8,8.61,1.6,12.92,2.4,8.61,1.6,17.24,3.2,25.85,4.81.53.11.75-.69.22-.8-9.88-1.85-19.73-3.67-29.61-5.52-4.84-.91-9.68-1.82-14.53-2.71-1.74-.33-3.76-.69-5.4.22-1.25.66-2.08,1.88-1.96,3.31,0,.52.86.52.8,0Z"/>
  <path class="cls-8" d="m136.64,240.63c2.88.3,4.65-2.43,6.89-3.76,1.91-1.1,3.57-.25,5.54.14,2.19.44,4.43.5,6.64.22.53-.06.53-.88,0-.83-2.49.3-4.98.19-7.42-.41-1.47-.39-2.79-.86-4.26-.28-2.6.99-4.37,4.42-7.39,4.09-.52-.05-.52.77,0,.83Z"/>
  <path class="cls-8" d="m189.41,293.73c6.64-2.32,13.34-4.64,20.2-6.3,7.17-1.71,14.39-2.4,21.75-2.18,7.28.22,14.5,1.05,21.75,1.71,7.28.69,14.56,1.35,21.83,2.04,8.36.77,16.74,1.55,25.1,2.35.53.05.53-.77,0-.83-14.91-1.38-29.83-2.76-44.77-4.17-14.36-1.33-28.81-3.29-43.11-.33-7.86,1.63-15.44,4.28-22.99,6.9-.47.17-.25.97.25.8Z"/>
  <path class="cls-8" d="m218.66,266.56c4.95-1.05,9.6-3.12,14.28-5,5.01-1.99,10.07-3.37,15.44-3.84,5.42-.47,10.88-.19,16.27.14,5.42.33,10.85.72,16.3,1.1,6.34.47,12.7.99,19.04,1.55.53.05.53-.77,0-.83-11.23-.99-22.47-1.85-33.73-2.57-10.71-.69-21.25-.97-31.46,2.82-5.42,2.02-10.68,4.58-16.38,5.8-.47.14-.28.94.25.83Z"/>
  <path class="cls-8" d="m282.44,234.72c3.96-3.01,8.14-5.96,12.56-8.23,2.16-1.1,4.48-1.99,6.92-2.18,2.63-.22,5.26.3,7.83.64,5.23.63,10.49,1.02,15.74,1.35,3.49.22,7.91.72,10.38-2.32.33-.41-.25-.99-.58-.58-2.8,3.45-8.69,2.15-12.51,1.9-5.26-.36-10.46-.86-15.69-1.52-2.24-.28-4.45-.5-6.7-.08-2.21.39-4.29,1.27-6.25,2.32-4.26,2.26-8.3,5.08-12.15,8.01-.39.3.03,1.02.44.69Z"/>
  <path class="cls-8" d="m130.11,230.17c3.93-2.95,7.89-5.88,11.82-8.84,3.76-2.82,7.28-5.77,12.2-6.02,4.65-.22,9.41.3,14.03.69,4.98.41,9.93.97,14.86,1.66,4.15.58,9.1,2.13,13.03-.03.47-.25.06-.97-.42-.72-2.02,1.1-4.26,1.1-6.5.83-2.41-.3-4.82-.72-7.22-1.05-4.65-.63-9.33-1.16-14.03-1.55-4.62-.39-9.41-.94-14.03-.66-4.29.25-7.47,2.46-10.82,4.97-4.46,3.31-8.88,6.65-13.34,9.97-.41.36,0,1.08.42.74Z"/>
  <path class="cls-8" d="m285.79,259.35c.25-1.82.61-3.59,1.13-5.36.25-.83.5-1.66.83-2.49.19-.5.72-1.33,1.44-1.13.36.11.52,1.35.55,1.6.05.44.66.58.8.11,1.3-4.23,2.79-8.86,6.78-11.32-.22-.11-.42-.25-.64-.36,0,.69-.03,1.41-.03,2.1,0,.39.58.58.77.22,2.46-5.11,5.15-10.47,10.13-13.56-.19-.16-.41-.3-.61-.47-2.49,6.43-5.4,12.7-8.69,18.78-.22.39.33.88.66.5,1.85-2.21,3.74-4.42,6.17-6.02-.19-.19-.39-.39-.58-.58-3.07,6.46-6.42,12.76-10.1,18.89-.28.47.44.88.72.41,3.65-6.13,7.03-12.43,10.1-18.89.17-.33-.19-.83-.58-.58-2.49,1.66-4.43,3.89-6.34,6.16.22.17.44.33.66.5,3.32-6.13,6.25-12.45,8.77-18.97.14-.33-.33-.64-.61-.47-5.12,3.18-7.89,8.62-10.43,13.86.25.08.53.14.77.22,0-.69.03-1.41.03-2.1,0-.3-.36-.52-.64-.36-4.15,2.57-5.78,7.37-7.14,11.82.28.03.55.08.8.11-.14-1.41-1.41-3.81-2.96-2.02-.77.91-1.08,2.4-1.41,3.54-.55,1.82-.94,3.7-1.22,5.6-.03.55.75.77.83.25Z"/>
  <path class="cls-8" d="m92.45,212.74c2.16-1.16,4.34-2.32,6.72-2.96,2.52-.66,5.01-.44,7.53-.11,5.01.66,10.02,1.32,15,1.99.53.08.53-.75,0-.83-5.34-.72-10.71-1.49-16.05-2.13-2.46-.3-4.82-.3-7.19.39-2.27.66-4.37,1.79-6.45,2.9-.47.3-.03.99.44.75Z"/>
  <path class="cls-8" d="m260.78,25.43c1.99-1.68,4.79-1.35,6.97-.28,1.66.8,3.02,2.43,4.95,2.51,1.8.06,3.29-1.16,4.81-1.96,1.02-.52,2.08-.88,3.24-.64,1.24.25,2.32.97,3.46,1.46,3.73,1.63,6.23-.64,9.38-2.43.89-.5,1.83-.94,2.85-1.02,1.3-.11,2.46.47,3.62.97,1.83.77,3.21,1.08,5.06.33,1.91-.75,3.46-.64,5.37.06,1.22.44,2.38.99,3.65,1.27,1.91.44,3.96.33,5.4-1.13.39-.39-.22-.97-.58-.58-1.85,1.88-4.68.99-6.81.17-2.16-.83-4.37-1.71-6.67-.86-1.44.55-2.41.94-3.96.41-1.05-.36-2.02-.94-3.1-1.24-1.63-.5-3.15-.22-4.65.52-1.72.86-3.21,2.21-5.01,2.93-2.38.94-4.23-.3-6.39-1.22-1.58-.66-3.07-.77-4.65-.08-1.91.86-3.76,2.73-6.01,1.93-1.19-.41-2.13-1.38-3.21-1.99-.91-.5-1.91-.86-2.93-1.05-1.96-.36-3.87-.03-5.42,1.27-.39.41.22.99.61.64Z"/>
  <path class="cls-8" d="m270.74,44.29c.53,0,.53-.83,0-.83s-.53.83,0,.83Z"/>
  <path class="cls-8" d="m276.27,47.3c1.3-2.35,4.37-1.22,6.28-.44,1.91.77,3.62,1.24,5.64.55,1.66-.58,3.15-1.68,4.87-2.07,2.38-.55,3.74,1.46,5.89,1.93,3.38.75,6.78-3.01,9.96-1.44.89.44,1.49,1.02,2.55.94.97-.06,1.85-.52,2.8-.75,2.63-.61,5.37-.14,7.72,1.16.47.25.88-.47.41-.72-1.49-.83-3.1-1.33-4.79-1.49-.86-.08-1.74-.06-2.6.08-1.02.14-1.96.58-2.96.77-1.36.25-1.94-.41-3.04-.88-.55-.22-1.16-.33-1.74-.3-1.38.06-2.71.64-3.99,1.1-1.63.61-3.38,1.19-5.04.36-1.41-.69-2.52-1.74-4.18-1.74-3.43.03-5.84,3.31-9.46,2.32-2.68-.75-7-3.37-8.99.17-.3.5.42.91.66.44Z"/>
  <path class="cls-8" d="m249.43,80.36c1.97-1.55,4.21-1.46,6.37-.47,1.19.55,2.46,1.08,3.71.33.72-.44,1.19-1.13,2.05-1.38.91-.28,1.88-.08,2.77.14,1.58.39,3.1,1.08,4.73,1.19,1.94.14,3.71-.69,5.59-.88,2.02-.19,3.43,1.02,5.31,1.3,1.83.25,3.24-1.21,5.06-.94,2.21.33,4.4,1.08,6.59,1.63.53.14.75-.66.22-.8-2.3-.58-4.68-1.46-7.03-1.71-1.99-.22-3.43,1.41-5.42.8-1.85-.55-3.18-1.35-5.17-1.08-2.13.3-4.07,1.13-6.25.66-1.69-.36-3.32-1.16-5.06-1.27-.64-.03-1.3.03-1.91.28-.77.3-1.19.94-1.91,1.35-1.66.97-3.9-1.08-5.67-1.21-1.69-.14-3.24.44-4.57,1.46-.42.36.19.94.61.61Z"/>
  <path class="cls-8" d="m90.79,20.1c.53,0,.53-.83,0-.83s-.53.83,0,.83Z"/>
  <path class="cls-8" d="m93.23,20.74c.5-2.46,3.76-.88,4.95-.14,1.36.86,2.79,1.63,4.45,1.16,1.8-.52,3.02-2.07,5.01-2.18,1.88-.08,3.71.77,5.48,1.33,1.52.47,3.13.8,4.7.41,1.85-.44,3.43-1.74,5.31-2.07,3.71-.64,7.06,2.37,10.82,1.22.5-.17.3-.97-.22-.8-3.93,1.24-7.67-2.24-11.65-.99-2.05.64-3.76,2.07-6,1.99-2.08-.08-3.96-1.08-5.92-1.57-1.55-.39-3.13-.5-4.62.19-.86.39-1.61,1.02-2.46,1.44-1.41.66-2.6.28-3.87-.44-1.38-.8-2.57-1.74-4.26-1.6-1.19.08-2.24.69-2.46,1.91-.14.47.66.69.75.17Z"/>
  <path class="cls-8" d="m95.75,181.98c3.29-1.38,6.61,1.08,9.93,1.24,1.72.08,3.38-.33,5.06-.66,2.13-.41,3.96-.44,6,.41,1.25.52,2.38.86,3.65.36.72-.28,1.33-.74,2.05-.99.8-.28,1.63-.33,2.49-.33,2.96.05,5.92,1.08,8.74-.25.47-.22.06-.94-.42-.72-3.02,1.41-6.36-.14-9.55.19-1.52.16-2.52,1.05-3.93,1.46-1.69.5-3.35-.94-5.01-1.19-3.57-.55-6.94,1.44-10.54.72-2.88-.58-5.78-2.26-8.72-1.02-.47.19-.25.99.22.77Z"/>
  <path class="cls-3" d="m35.92,141.3c2.41,0,4.37-1.95,4.37-4.36s-1.96-4.36-4.37-4.36-4.37,1.95-4.37,4.36,1.96,4.36,4.37,4.36Z"/>
  <path class="cls-3" d="m290.41,111.31c1.7,0,3.07-1.37,3.07-3.07s-1.38-3.06-3.07-3.06-3.07,1.37-3.07,3.06,1.38,3.07,3.07,3.07Z"/>
  <path class="cls-3" d="m262.77,4.53c1.25,0,2.27-1.01,2.27-2.26s-1.02-2.26-2.27-2.26-2.27,1.01-2.27,2.26,1.02,2.26,2.27,2.26Z"/>
  <path class="cls-3" d="m162.82,200.89c1.56,0,2.82-1.26,2.82-2.82s-1.26-2.82-2.82-2.82-2.82,1.26-2.82,2.82,1.26,2.82,2.82,2.82Z"/>
  <path class="cls-3" d="m32.71,40.92c1.79,0,3.24-1.45,3.24-3.23s-1.45-3.23-3.24-3.23-3.24,1.45-3.24,3.23,1.45,3.23,3.24,3.23Z"/>
  <path class="cls-3" d="m144.34,154.28c1.02,0,1.85-.83,1.85-1.85s-.83-1.85-1.85-1.85-1.85.83-1.85,1.85.83,1.85,1.85,1.85Z"/>
  <path class="cls-3" d="m319.33,170.02c1.56,0,2.82-1.26,2.82-2.82s-1.26-2.82-2.82-2.82-2.82,1.26-2.82,2.82,1.26,2.82,2.82,2.82Z"/>
  <path class="cls-3" d="m11.68,216.58c1.16,0,2.1-.94,2.1-2.1s-.94-2.1-2.1-2.1-2.1.94-2.1,2.1.94,2.1,2.1,2.1Z"/>
  <path class="cls-6" d="m97.68,53.49c-2.41,4.89-4.84,9.78-7.25,14.66,9.96,13.34,19.92,26.65,29.88,39.99,2.57-3.89,5.12-7.87,7.69-11.87,6.06-9.5,11.84-18.89,17.38-28.19-1.88-4.78-3.79-9.58-5.67-14.36-1.22-.64-2.44-1.24-3.65-1.88-11.79.03-23.58.06-35.34.08-1.05.55-2.05,1.08-3.04,1.57Z"/>
  <path class="cls-5" d="m90.77,68.37c2.1-4.61,4.26-9.2,6.48-13.75.22-.47-.47-.91-.72-.41-2.21,4.56-4.37,9.14-6.48,13.75-.22.47.5.91.72.41Z"/>
  <path class="cls-5" d="m90.21,68.87c9.74,13.34,19.67,26.51,29.8,39.57.33.41.91-.17.58-.58-10.07-13.01-19.95-26.12-29.66-39.41-.3-.41-1.02,0-.72.41Z"/>
  <path class="cls-5" d="m97.43,54.15c1.16-.61,2.3-1.24,3.46-1.85.47-.25.06-.97-.42-.72-1.16.61-2.3,1.24-3.46,1.85-.5.28-.06.97.42.72Z"/>
  <path class="cls-5" d="m101.59,52.36h25.93c.53,0,.53-.83,0-.83h-25.93c-.53,0-.53.83,0,.83Z"/>
  <path class="cls-5" d="m145.78,67.99c-1.74-4.61-3.54-9.17-5.4-13.75-.19-.5-1-.28-.8.22,1.85,4.56,3.65,9.14,5.4,13.75.19.5,1,.28.8-.22Z"/>
  <path class="cls-5" d="m144.86,68.4c-8.11,13.25-16.38,26.43-24.82,39.49-.3.44.42.86.72.41,8.44-13.06,16.71-26.21,24.82-39.49.28-.44-.44-.88-.72-.41Z"/>
  <path class="cls-5" d="m139.88,53.38c-.97-.61-1.94-1.24-2.91-1.85-.44-.28-.86.41-.42.72.97.61,1.94,1.24,2.91,1.85.47.3.88-.41.42-.72Z"/>
  <path class="cls-5" d="m136.04,51.45h-21.64c-.53,0-.53.83,0,.83h21.64c.53,0,.53-.83,0-.83Z"/>
  <path class="cls-5" d="m91.1,68.79c4.95-2.13,9.91-4.25,14.86-6.38.5-.22.06-.91-.41-.72-4.95,2.13-9.91,4.25-14.86,6.38-.47.22-.06.94.42.72Z"/>
  <path class="cls-5" d="m97.57,53.9c3.04.47,6.03,1.13,8.99,1.96.53.14.75-.66.22-.8-2.96-.86-5.95-1.49-8.99-1.96-.53-.08-.77.72-.22.8Z"/>
  <path class="cls-5" d="m106.34,55.73c.66,2.07,1.25,4.14,1.74,6.27.11.52.91.3.8-.22-.5-2.13-1.08-4.2-1.74-6.27-.17-.5-.97-.3-.8.22Z"/>
  <path class="cls-5" d="m107.62,55.81h22.22c.53,0,.53-.83,0-.83h-22.22c-.53,0-.53.83,0,.83Z"/>
  <path class="cls-5" d="m129.48,55.97c-.28,1.52-.55,3.07-.83,4.58-.08.52.72.75.8.22.28-1.52.55-3.07.83-4.58.08-.52-.72-.75-.8-.22Z"/>
  <path class="cls-5" d="m108.53,62.05h19.45c.53,0,.53-.83,0-.83h-19.45c-.53,0-.53.83,0,.83Z"/>
  <path class="cls-5" d="m130.64,55.81c3.02-.64,6-1.27,9.02-1.91.53-.11.3-.91-.22-.8-3.02.64-6.01,1.27-9.02,1.91-.53.11-.3.91.22.8Z"/>
  <path class="cls-5" d="m129.26,61.8c2.79.44,5.4,2.02,7.94,3.2,2.71,1.27,5.4,2.54,8.11,3.81.47.22.91-.5.42-.72-2.88-1.35-5.73-2.68-8.61-4.03-2.43-1.16-4.95-2.62-7.64-3.07-.52-.08-.75.72-.22.8Z"/>
  <path class="cls-5" d="m108.78,63.32c3.6,14.8,7.17,29.63,10.76,44.43.14.52.91.3.8-.22-3.6-14.8-7.17-29.63-10.76-44.43-.14-.52-.94-.3-.8.22Z"/>
  <path class="cls-5" d="m128.09,64.31c-3.38,14.25-6.17,28.66-8.33,43.16-.08.52.72.74.8.22,2.16-14.5,4.95-28.89,8.33-43.16.14-.52-.66-.75-.8-.22Z"/>
  <path class="cls-5" d="m128.37,36.67c1.25-3.18,1.94-6.52,2.05-9.94.03-.52-.8-.52-.83,0-.11,3.34-.8,6.6-2.02,9.72-.19.5.61.69.8.22Z"/>
  <path class="cls-5" d="m134.04,37.22c2.66-3.01,5.65-5.66,8.99-7.9.44-.3.03-1.02-.41-.72-3.4,2.26-6.48,4.97-9.16,8.04-.36.39.22.97.58.58Z"/>
  <path class="cls-5" d="m139.49,42.33c3.43-1.02,6.97-1.41,10.54-1.13.53.03.53-.8,0-.83-3.65-.28-7.25.11-10.76,1.16-.5.17-.3.97.22.8Z"/>
  <path class="cls-8" d="m81.19,22.98c.33,5.47-2.74,10.69-7.66,13.06-.28.14-.25.55,0,.72,4.51,2.71,6.59,7.68,7.78,12.56.14.52.91.3.8-.22-1.25-5.11-3.46-10.27-8.16-13.06v.72c5.17-2.51,8.44-8.06,8.08-13.78-.03-.52-.86-.52-.83,0Z"/>
  <path class="cls-8" d="m81.5,22.98c-.36,5.74,2.91,11.29,8.08,13.78v-.72c-4.73,2.82-6.95,7.98-8.19,13.12-.14.52.66.75.8.22,1.19-4.92,3.27-9.91,7.8-12.62.25-.14.28-.58,0-.72-4.93-2.37-8.02-7.59-7.69-13.06.06-.52-.77-.52-.8,0Z"/>
  <path class="cls-5" d="m216.23,230.28c.97-.41,2.3-1.02,3.82-1.88,2.55-1.41,3.82-2.13,4.59-3.26,1-1.49.61-2.29,1.91-3.78.19-.25,1.11-1.22,2.3-1.74,2.05-.86,3.96.16,7.14,1.3,2.93,1.05,5.23,1.55,9.82,2.57,1.83.41,4.04.83,7.25,1.82.91.28,1.63.53,2.13.69.05.58.08,2.07-.89,3.42-.44.61-1.05,1.1-2.02,1.55-2.24,1.05-4.37.86-6.17.77-3.87-.17-2.27.39-11.4.55-1.99.03-3.62.03-4.76.03-1.41.97-2.82,1.96-4.26,2.98-2.44,1.77-4.76,3.53-6.97,5.27-.83-3.42-1.66-6.88-2.49-10.3Z"/>
  <path class="cls-6" d="m204.69,194.93c-1.99,1.05-2.21,1.43-9.63,7.73-11.57,9.8-12.84,10.33-23.33,19.47-10.04,8.73-11.93,10.91-13.84,13.78-4.76,7.26-5.81,13.34-6.12,16.29-.42,3.98-.97,9.5,2.55,13.86,2.21,2.73,5.09,3.87,6.06,4.22,2.91,1.11,5.28.97,9.57.66,5.7-.41,10.04-1.52,11.76-1.99,1.88-.52,6.25-1.82,11.73-4.53,5.15-2.54,7.36-4.42,14.39-9.14,3.13-2.1,7.75-5.16,13.56-8.7.36-2.76.06-4.91-.25-6.27-.72-3.2-2.19-5.41-3.82-7.84-1.33-1.99-2.6-3.51-3.49-4.5,2.07-1.57,4.79-3.84,7.64-6.88,1.91-2.04,4.93-5.3,7.44-9.89,3.1-5.63,6.2-11.32,4.21-15.24-3.13-6.16-18.01-6.43-28.45-1.05Z"/>
  <path class="cls-7" d="m229.48,197.94c-1.58,3.64-4.18,8.81-8.33,14.33-6.03,7.98-12.12,12.4-21.31,18.94-25.98,18.5-32.96,22.73-32.18,24.49,1.05,2.4,15.69-1.91,17.82-2.54,15.55-4.58,27.01-11.65,34.17-16.82-1.83-2.79-3.65-5.58-5.48-8.34,2.24-1.6,5.34-4.14,8.25-7.93,1.6-2.07,4.04-5.27,5.62-10.11,1.61-4.81,1.66-9.09,1.44-12.04Z"/>
  <path class="cls-5" d="m204.58,194.9c-9.85,7.32-19.45,15-28.69,23.03-4.43,3.84-8.86,7.68-13.01,11.79-3.68,3.65-7.11,7.68-9.19,12.48-2.16,4.97-2.77,10.71-2.24,16.1.44,4.45,2.08,8.92,6.14,11.24,4.26,2.4,9.63,2.15,14.33,1.66,5.78-.58,11.48-1.99,16.88-4.17,12.04-4.89,21.47-14.03,32.85-20.08.47-.25.06-.97-.41-.72-9.49,5.05-17.57,12.34-27.09,17.4-4.98,2.65-10.35,4.58-15.88,5.77-5.12,1.08-10.88,1.9-16.08.91-2.43-.47-4.79-1.46-6.53-3.29-1.69-1.79-2.6-4.14-3.07-6.54-1.02-5.22-.55-11.13,1.16-16.15s5.06-9.25,8.72-13.01c3.79-3.89,7.94-7.48,12.01-11.04,9.82-8.62,20.01-16.85,30.52-24.63.42-.33.03-1.05-.41-.75Z"/>
  <path class="cls-5" d="m177.46,251.51c9.08-3.51,17.29-8.75,25.1-14.5,3.85-2.82,7.64-5.74,11.4-8.67,3.71-2.9,7.25-5.97,10.13-9.69.33-.41-.39-.83-.72-.41-2.93,3.81-6.61,6.88-10.38,9.83-3.71,2.9-7.44,5.77-11.26,8.56-7.64,5.58-15.63,10.71-24.49,14.11-.5.17-.28.97.22.77Z"/>
  <path class="cls-5" d="m213.54,228.26c5.34,4.47,8.16,11.4,7.41,18.34-.05.53.78.53.83,0,.75-7.12-2.19-14.3-7.67-18.92-.39-.36-.97.22-.58.58Z"/>
  <path class="cls-5" d="m220.9,238.89c1.58-.47,2.96-1.79,4.29-2.73,1.66-1.16,3.29-2.32,4.95-3.48.44-.3.03-1.02-.41-.72-1.49,1.05-3.02,2.13-4.51,3.18-1.38.97-2.91,2.46-4.54,2.96-.53.14-.3.94.22.8Z"/>
  <path class="cls-5" d="m216.34,230.66c3.13-1.3,6.01-3.07,8.61-5.25.42-.36-.19-.94-.58-.58-2.46,2.1-5.23,3.78-8.22,5.03-.5.22-.28,1.02.19.8Z"/>
  <path class="cls-5" d="m224.64,225.06c.53,0,.53-.83,0-.83s-.53.83,0,.83Z"/>
  <path class="cls-5" d="m225.64,224.06c.47-1.11.97-2.32,1.85-3.18,1.19-1.16,2.63-.99,4.15-.66,2.82.63,5.59,1.52,8.36,2.32,2.57.72,5.15,1.35,7.8,1.66,1.55.16,2.85.36,4.23,1.05,1.02.5,1.91.99,3.04,1.1.53.06.53-.77,0-.83-1.52-.14-2.71-1.19-4.15-1.66-1.44-.47-3.04-.44-4.54-.69-3.26-.53-6.45-1.52-9.6-2.46-1.55-.44-3.1-.88-4.68-1.24-1.16-.25-2.38-.55-3.54-.19-2.02.61-2.99,2.76-3.74,4.56-.19.5.61.72.8.22Z"/>
  <path class="cls-5" d="m230.04,233.29c5.92-.88,11.79-1.02,17.76-1.13,2.08-.03,4.29-.28,5.95-1.63,1.41-1.16,2.21-2.84,1.83-4.64-.11-.52-.91-.3-.8.22.52,2.51-1.74,4.36-3.99,4.92-2.3.55-4.79.28-7.14.33-4.65.08-9.24.47-13.84,1.16-.53.05-.28.86.22.77Z"/>
  <path class="cls-5" d="m251.04,227.79c2.05-1.46,4.12-2.93,6.17-4.39.14-.94.58-2.98,2.27-4.72.5-.52,1.66-1.74,3.4-2.07,1.83-.36,3.24.47,4.82,1.19,2.55,1.16,5.01,1.6,9.88,2.54,3.85.72,5.78,1.08,8.55.94,3.76-.22,6.45-1.21,8.05.36.17.17.86.91.8,1.82-.08,1.16-1.33,1.9-2.32,2.49-4.34,2.49-6.78,3.2-6.78,3.2-6.14,1.79-9.24,2.71-11.9,2.93-2.16.16-5.23.25-8.94-.33-1.08,3.7-4.34,6.07-7.42,5.88-3.96-.25-7.61-4.69-6.59-9.83Z"/>
  <path class="cls-6" d="m211.3,203.38c.61-1.85,1.74-4.2,3.87-4.97,1.38-.5,2.66-.17,3.07-.05,2.57.63,7.86-.28,18.4-2.07,5.23-.88,11.84-2.18,19.45-4.11.03,1.41,0,3.26-.08,5.41-.19,4.83-.69,8.48-.8,9.33-.47,3.42-1.3,9.11-3.82,16.02-.64,1.77-1.27,3.23-1.72,4.23,1.08.5,2.24,1.16,3.38,2.1,4.68,3.73,6.03,9,6.48,11.24-.66.8-1.66,1.99-2.93,3.34-5.15,5.47-9.91,8.53-18.98,14.14-5.59,3.45-9.68,5.96-16.24,9.83-7.97,4.69-14.42,8.34-22.44,10.63-1.99.58-5.15,1.35-9.13.94-1.94-.19-5.42-.55-8.77-2.98-4.29-3.09-5.64-7.62-6.2-9.61-1.25-4.45-.77-8.62.39-12.95.8-3.04,3.71-13.12,13.81-24.47,2.02-2.26,7.77-7.37,19.23-17.59,2.77-2.46,5.04-4.47,6.56-5.8-1.16-.88-2.32-1.74-3.51-2.6Z"/>
  <path class="cls-7" d="m248.93,195.73c-.64,2.43-1.66,5.94-3.21,10.05-14.14,37.39-45.74,53.54-43.17,57.58,1.88,2.98,19.92-4.45,32.93-12.26,9.74-5.85,16.99-12.12,21.83-16.85-.78-1.13-1.96-2.68-3.76-4.14-1.74-1.41-3.4-2.26-4.65-2.79.86-1.24,1.99-3.12,2.96-5.52.64-1.55,1.19-3.2,1.91-6.57,1.16-5.33,1.63-9.56,1.77-10.88.33-3.18.64-7.29.58-12.15-2.41,1.16-4.79,2.35-7.19,3.54Z"/>
  <path class="cls-5" d="m255.71,192.17c.03,5.22-.3,10.44-1.02,15.63-.67,4.67-1.5,9.47-3.21,13.89-1.85,4.78-5.04,8.26-8.88,11.54-3.93,3.34-7.89,6.63-11.84,9.91-4.54,3.78-9.1,7.54-13.64,11.32-.42.33.17.91.58.58,8.33-6.9,16.66-13.78,24.93-20.77,3.65-3.09,6.97-6.3,8.96-10.74,1.94-4.31,2.88-9.03,3.62-13.67.94-5.86,1.38-11.76,1.33-17.7,0-.55-.83-.55-.83,0Z"/>
  <path class="cls-5" d="m211.77,204.15c1.13.61,2.27,1.21,3.43,1.82.47.25.88-.47.41-.72-1.13-.61-2.27-1.22-3.43-1.82-.47-.25-.89.47-.42.72Z"/>
  <path class="cls-5" d="m215.2,205.64c-9.85,8.01-20.2,15.93-28.42,25.65-7.08,8.37-12.92,18.97-12.89,30.21,0,4.94,1.36,10.11,5.01,13.61,3.65,3.53,8.94,4.92,13.92,4.67,6.09-.3,11.87-2.71,17.29-5.36,5.81-2.84,11.32-6.21,16.85-9.55,11.4-6.9,24.13-13.34,32.68-23.86.33-.41-.25-.99-.58-.58-7.17,8.84-17.24,14.5-26.84,20.3-5.29,3.2-10.51,6.46-15.91,9.5-5.29,2.98-10.79,5.83-16.63,7.51-5.48,1.57-11.59,1.9-16.77-.83-4.98-2.6-7.53-7.62-8.05-13.09-1.02-11.05,4.54-22.04,11.26-30.43,8.38-10.47,19.34-18.8,29.69-27.2.39-.3-.19-.88-.61-.55Z"/>
  <path class="cls-5" d="m249.49,227.49c5.2,2.49,8.83,7.4,9.68,13.09.08.52.89.3.8-.22-.86-5.88-4.68-11.05-10.04-13.59-.5-.22-.91.5-.44.72Z"/>
  <path class="cls-5" d="m251.15,228.21c1.11-.44,1.99-1.19,2.93-1.91,1.11-.86,2.24-1.68,3.35-2.54.42-.33,0-1.05-.42-.72-1,.74-1.99,1.49-2.99,2.26-.97.75-1.94,1.66-3.1,2.1-.47.19-.28.99.22.8Z"/>
  <path class="cls-5" d="m257.84,223.43c.55-1.63,1.22-3.23,2.1-4.72,1.22-2.04,3.04-1.82,5.09-1.3,3.18.8,6.23,2.02,9.44,2.73,6.23,1.38,12.62,1.85,18.98,1.44.53-.03.53-.86,0-.83-7.5.5-15.05-.28-22.3-2.32-1.74-.5-3.43-1.13-5.18-1.63-1.33-.39-2.9-.83-4.29-.55-1.24.25-1.96,1.19-2.57,2.24-.86,1.49-1.52,3.09-2.07,4.72-.17.5.64.72.8.22Z"/>
  <path class="cls-5" d="m259.03,236.77c2.08-1.57,4.12-3.15,6.2-4.72.41-.33,0-1.05-.42-.72-2.08,1.57-4.12,3.15-6.2,4.72-.42.33,0,1.05.41.72Z"/>
  <path class="cls-5" d="m265.21,231.85c6.75,1.46,13.64.36,20.03-2.07,2.9-1.1,6.23-2.35,8.72-4.22,1.74-1.3,1.99-3.78-.3-4.67-.5-.19-.72.61-.22.8,1.24.47,1.38,1.82.53,2.76-.42.47-1,.77-1.55,1.11-1.13.63-2.3,1.21-3.46,1.77-2.46,1.16-5.01,2.15-7.64,2.93-5.17,1.49-10.6,1.99-15.91.83-.5-.14-.72.66-.19.77Z"/>
  <path class="cls-3" d="m193.09,112.58c4.21-3.48,10.49-7.68,18.87-10.16,3.93-1.16,8.85-2.6,15.38-2.04,10.02.86,16.91,5.77,19.34,7.57,3.82,2.79,6.42,5.74,8.02,7.81.31,19.36.72,38.74,1.24,58.1.17,5.96.33,11.96.53,17.92-3.93,2.43-9.44,5.16-16.41,6.76-16.33,3.73-29.91-1.24-35.42-3.65-.03-4.89-.33-12.23-1.83-21.04-2.43-14.47-6.23-20.3-8.61-32.75-1.19-6.43-2.32-16.1-1.13-28.52Z"/>
  <path class="cls-6" d="m243.12,117.36c-1.36,1.49-1.61,3.17-1.52,9.64.05,6.79.41,11.43.64,16.82.17,3.89.3,6.99.22,11.02-.08,5.08-.42,9.25-.72,12.04-2.71,3.04-5.12,5.41-6.92,7.12-4.04,3.84-8.44,7.98-14.94,11.87-2.57,1.52-4.79,2.62-6.28,3.31-1.36-.22-2.88-.55-4.54-.97-3.93-.99-5.56-1.88-8.52-1.88-.89,0-3.68,0-3.96.99-.25.83,1.3,2.13,2.52,2.76,1.14.58,1.63.41,2.77.94,1.27.61,2.1,1.49,2.6,2.15-.53.74-1.33,1.88-2.21,3.34-1.02,1.71-1.25,2.38-2.43,4.42-1.25,2.15-1.88,3.23-2.43,3.78-.86.8-1.38.97-5.23,2.68-3.82,1.71-4.48,2.1-4.48,2.57s.75.58,3.71,1.85c2.41,1.02,2.63,1.24,3.87,1.6,1.55.44,2.49.72,3.62.47,1.8-.36,2.96-1.71,3.46-2.43.25.22.86.69,1.66.72.64,0,1.16-.25,1.58-.58,1.74-1.24,2.6-3.53,4.32-6.1.3-.44,1.38-2.07,3.13-3.89,1.08-1.16,2.07-2.02,2.79-2.6.97-.22,2.41-.55,4.12-1.05,6.67-1.9,11.48-4.2,15.52-6.13,2.35-1.13,5.01-2.62,10.29-5.58,4.59-2.57,6.97-4,9.08-6.82.22-.3,1.36-1.82,2.35-4.06.3-.69,1.38-3.15,1.96-7.45.28-1.91.28-2.96.3-8.92.05-7.59.05-6.68.05-7.46-.03-11.13-.61-10.13-.8-20.35-.03-.97-.06-3.59-.86-6.9-.86-3.59-1.94-5.19-2.55-5.99-.77-1.02-1.71-2.24-3.32-2.93-2.93-1.3-6.84-.25-8.85,1.99Z"/>
  <path class="cls-1" d="m252.01,115.35c.67,2.18,1.47,5.33,2.02,9.14.67,4.61.91,9.69-.58,22.97-1.25,11.1-1.85,16.65-3.46,21.84-2.3,7.4-3.96,12.79-9.02,17.04-3.27,2.73-6.84,4-14,6.52-5.26,1.85-9.77,2.96-12.87,3.64-2.21,2.98-5.51,6.77-10.18,10.36-3.65,2.82-7.17,4.75-10.07,6.07.41.28,2.13,1.38,4.45,1.08,2.71-.36,4.18-2.29,4.43-2.65.53.39,1.3.8,2.16.66,1.77-.28,2.71-2.79,3.18-3.92,1.02-2.35,3.07-5.58,7.66-9.11,3.04-.8,7.17-2.02,11.95-3.84,6.67-2.57,11.15-5.05,15.97-7.73,7.72-4.31,9.46-6.07,10.74-7.79,2.33-3.12,3.29-6.32,3.71-7.73.75-2.51.89-5.33,1.16-10.83.19-4.09.19-7.23.19-9.61,0-4.09-.08-7.12-.17-9.75-.11-3.81-.33-8.29-.89-13.64-.41-3.89-.72-5.44-1.6-7.18-1.36-2.76-3.38-4.53-4.79-5.55Z"/>
  <path class="cls-5" d="m242.71,117.25c-1.44,3.59-1.6,7.46-1.52,11.29.08,4.23.3,8.42.5,12.65.39,8.56.66,17.15-.36,25.68-.05.52.78.52.83,0,1-8.34.78-16.76.39-25.13-.19-4.14-.41-8.28-.53-12.45-.11-4-.03-8.04,1.49-11.82.19-.5-.61-.72-.8-.22Z"/>
  <path class="cls-5" d="m242.93,166.16c-2.54,1.41-4.59,3.45-6.56,5.58-2.13,2.29-4.26,4.53-6.64,6.57-4.87,4.22-10.35,7.7-16.21,10.41-.5.22-.06.94.41.72,5.65-2.6,10.93-5.91,15.66-9.91,2.35-1.96,4.51-4.12,6.59-6.35,2.16-2.35,4.32-4.72,7.14-6.27.5-.3.08-1.02-.39-.75Z"/>
  <path class="cls-5" d="m213.71,188.77c-3.04-.63-6.11-1.3-9.16-1.99-1.52-.33-3.07-.74-4.62-1.02-.97-.17-1.99-.25-2.85.3-1.33.86-1.33,2.43-.14,3.37.86.69,1.96.99,2.99,1.33,1.66.52,3.07,1.19,4.15,2.6.33.42,1.05,0,.72-.41-.97-1.24-2.13-2.13-3.62-2.65-1.02-.36-2.16-.58-3.1-1.1-.66-.36-1.52-.91-1.02-1.91.47-.94,1.66-.86,2.52-.72,2.3.33,4.59.99,6.89,1.52,2.35.53,4.7,1.02,7.06,1.52.5.08.72-.72.19-.83Z"/>
  <path class="cls-5" d="m203.42,193.49c-1.22,2.24-2.46,4.44-3.68,6.68-.61,1.08-1.14,2.24-1.85,3.29-.75,1.08-1.74,1.63-2.91,2.18-2.19,1.02-4.54,1.85-6.64,3.04-.94.55-1.55,1.55-.75,2.51,1,1.19,2.96.72,4.29.5,1.83-.3,3.57-.91,5.23-1.68,3.46-1.66,6.39-4.25,8.49-7.46.3-.44-.42-.86-.72-.41-1.85,2.87-4.43,5.19-7.44,6.79-1.44.75-2.99,1.35-4.57,1.71-.88.22-1.83.41-2.77.44-.86.05-1.08.17-1.49-.69-.53-.5-.47-.83.14-.99.19-.08.36-.17.55-.25,1.77-.83,3.57-1.63,5.34-2.46,1.38-.63,2.74-1.19,3.68-2.43,1.11-1.46,1.88-3.2,2.77-4.81,1.02-1.85,2.05-3.7,3.04-5.52.25-.5-.47-.91-.72-.44Z"/>
  <path class="cls-5" d="m216.06,199.54c7.39-2.07,14.56-4.83,21.42-8.26,3.4-1.71,6.72-3.56,9.96-5.6,2.9-1.82,5.98-3.67,8.05-6.46.3-.44-.41-.86-.72-.41-2.16,2.93-5.54,4.83-8.58,6.71-3.1,1.9-6.31,3.67-9.57,5.3-6.67,3.29-13.61,5.94-20.78,7.95-.5.11-.28.91.22.77Z"/>
  <path class="cls-5" d="m243.26,118c2.3-4.5,8.19-3.48,11.1-.28,3.49,3.87,3.65,9.53,4.04,14.44.83,10.74,1,21.57.33,32.31-.33,5.22-1.11,10.74-4.59,14.88-.33.41.25.99.58.58,3.13-3.76,4.21-8.51,4.65-13.26.58-6.07.58-12.23.53-18.34-.06-6.38-.36-12.79-.94-19.14-.44-4.78-1.3-10.05-5.26-13.23-3.38-2.71-9.02-2.62-11.18,1.6-.22.47.5.88.75.41Z"/>
  <path class="cls-5" d="m191.13,212.16c2.02.91,4.46,2.29,6.75,2.29,2.21-.03,3.85-1.85,5.34-3.23,4.29-3.98,8.58-7.95,12.87-11.9.39-.36-.19-.94-.58-.58-3.62,3.37-7.25,6.71-10.88,10.08-1.61,1.46-3.27,3.56-5.29,4.47-2.38,1.08-5.65-.86-7.78-1.82-.5-.25-.91.47-.44.69Z"/>
  <path class="cls-5" d="m202.39,211.58c.91,1.71,2.93,1.02,3.96-.17,2.02-2.38,3.6-5.25,5.31-7.82.3-.44-.41-.86-.72-.41-1.08,1.6-2.16,3.2-3.24,4.81-.61.88-3.29,5.66-4.59,3.18-.25-.47-.97-.05-.72.41Z"/>
  <path class="cls-5" d="m195.97,210.23c.83.44,1.85.88,2.77.44.47-.25.67-.63.89-1.08.39-.75.78-1.33,1.49-1.79.44-.3.03-1.02-.41-.72-.66.44-1.22.99-1.61,1.71-.28.53-.44,1.16-1.16,1.22-.53.05-1.11-.28-1.55-.5-.44-.22-.89.47-.42.72Z"/>
  <path class="cls-6" d="m190.3,52.44c-.97,1.96-1.94,5.25-2.24,6.32-.44,1.55-1.44,5.16-1.99,9.97-.3,2.65-.64,5.55-.36,9.39.14,1.82.33,4.69,1.41,8.26.72,2.43,1.77,5.94,4.62,9.53,2.49,3.12,5.34,5.08,7.61,6.27,1.44.03,3.18-.06,5.12-.41,3.49-.66,6.2-1.96,8.02-3.01.25,1.41.58,2.9,1,4.45.86,3.2,1.91,6.02,2.96,8.45,1.13-.19,2.49-.52,3.93-1.19,4.57-2.13,6.75-6.05,7.53-7.68-.41-1.6-.75-3.34-1.05-5.14-1.05-6.71-.77-12.7-.11-17.56.58.19,1.52.44,2.68.39,2.27-.14,3.82-1.38,4.59-2.04.66-.55,3.68-3.23,3.57-7.21-.03-.94-.08-3.23-1.72-4.47-1.52-1.13-3.57-.72-5.06-.41-1.71.36-2.99,1.08-3.76,1.57.58-1.91,1.8-6.79,0-12.48-.39-1.22-2.96-8.95-10.54-12.29-10.29-4.58-22.66,2.21-26.2,9.31Z"/>
  <path class="cls-2" d="m221.57,52.61c.22,2.57.39,6.3,0,10.71-1.19,13.39-6.5,22.7-7.89,25.02-2.1,3.53-5.7,8.67-11.46,13.72,1.72-.22,3.68-.61,5.78-1.35,5.78-2.04,9.66-5.55,11.76-7.84.17,3.07.69,6.79,1.94,10.88.55,1.74,1.16,3.34,1.8,4.78,1.47-1.9,2.91-3.81,4.37-5.74-.3-1.79-.58-3.7-.77-5.66-.64-5.94-.64-11.4-.3-16.26,1.24.03,3.04-.08,4.95-.83,8.36-3.31,13.12-16.49,8.61-23.67-.19-.3-1.19-1.85-3.24-3.23-6.34-4.25-14.39-1.02-15.55-.52Z"/>
  <path class="cls-3" d="m188.28,57.94c-.55-1.91-1.33-5.55-.53-10.02.25-1.38,1.11-5.83,4.15-9.33,4.46-5.11,10.04-4.14,17.29-6.74,4.59-1.63,10.9-5.05,17.29-13.12-.58,2.98-1.16,5.99-1.74,8.97,1,.28,4.35.99,7.78-.69,5.7-2.79,6.2-9.53,6.23-9.83.69,1.55,1.94,4.97,1.38,9.33-.39,2.98-1.47,5.22-2.24,6.57.33.36,2.1,2.18,4.15,1.91,2.49-.33,4.82-3.73,4.15-8.12.55,1.63,1.22,4.31,1.05,7.59-.22,4-1.55,7.01-2.44,8.64.22.19,1.63,1.46,3.62,1.22,1.74-.22,3.24-1.49,3.82-3.29-.14,1.85-.47,4.53-1.55,7.59-1.47,4.14-2.68,4.47-3.29,7.43-.97,4.64,1.52,6.21.86,10.36-.55,3.48-2.82,5.66-5.7,8.45-5.23,5.05-11.24,7.79-16.27,9.31.22-1.55.47-3.09.69-4.64.64.39,1.74.91,3.13.86,2.82-.11,4.59-2.62,5.54-3.98,1.08-1.52,2.88-4.11,1.91-6.9-.8-2.26-2.93-3.2-3.13-3.29-2.49-1.05-5.7-.11-7.77,2.43-1.16-4.56-2.3-9.09-3.46-13.64-3.93-2.49-7.83-4.94-11.76-7.43-1.94-.36-7.22-1.08-13.14,1.55-5.98,2.65-9.02,7.15-10.02,8.81Z"/>
  <path class="cls-5" d="m187.86,57.82c-2.35,8.78-3.76,18.11-1.6,27.09,1.77,7.29,6.25,15.6,13.89,17.98.5.17.72-.64.22-.8-7.67-2.37-11.95-11.02-13.53-18.31-1.85-8.56-.44-17.4,1.8-25.74.17-.5-.64-.72-.77-.22Z"/>
  <path class="cls-5" d="m200.76,102.75c12.76-1.3,23.41-10.49,26.4-22.98.11-.52-.66-.75-.8-.22-2.91,12.07-13.17,21.1-25.6,22.37-.52.06-.55.88,0,.83Z"/>
  <path class="cls-5" d="m226.44,80c5.7,3.48,11.26-3.81,11.62-8.92.19-2.71-1.05-4.78-3.74-5.55-2.49-.72-5.2.03-6.97,1.91-.36.39.22.97.58.58,1.47-1.57,3.68-2.26,5.81-1.79,1.11.25,2.32.86,2.96,1.85.69,1.08.61,2.57.44,3.76-.66,4.28-5.42,10.41-10.29,7.43-.44-.25-.88.47-.41.75Z"/>
  <path class="cls-5" d="m226.38,79.94c-1.08,7.65-.69,15.41,1.13,22.92.14.53.94.3.8-.22-1.8-7.37-2.19-14.99-1.14-22.48.06-.52-.75-.75-.8-.22Z"/>
  <path class="cls-5" d="m212.08,98.86c.86,4.47,2.19,8.81,4.01,13.01.22.5.94.06.72-.41-1.8-4.11-3.1-8.39-3.93-12.81-.11-.52-.88-.3-.8.22Z"/>
  <path class="cls-5" d="m216.67,111.98c5.34-.86,9.85-4.53,11.87-9.53.19-.5-.61-.72-.8-.22-1.91,4.75-6.25,8.15-11.29,8.95-.53.08-.3.88.22.8Z"/>
  <path class="cls-5" d="m212.74,99.83c1.14.06,1.91-.72,2.77-1.38,1.13-.88,2.21-1.82,3.21-2.82,1.85-1.85,3.35-3.98,4.32-6.41.19-.5-.61-.72-.8-.22-.86,2.15-2.19,4.06-3.79,5.72-.72.77-1.49,1.46-2.3,2.15-.89.75-2.16,2.18-3.4,2.13-.53-.03-.53.8,0,.83Z"/>
  <path class="cls-5" d="m212.8,99.38c2.35-1.52,4.54-3.26,6.59-5.16.39-.36-.19-.97-.58-.58-1.99,1.88-4.12,3.56-6.42,5.05-.47.25-.03.97.42.69Z"/>
  <path class="cls-5" d="m196.53,59.43c-1.55,7.04-2.43,14.19-2.63,21.4,0,.41.55.55.77.22,1.08-1.71,2.16-3.45,3.24-5.16.28-.44-.44-.88-.72-.41-1.08,1.71-2.16,3.45-3.24,5.16.25.08.53.14.77.22.19-7.12,1.08-14.22,2.6-21.18.11-.55-.69-.77-.8-.25Z"/>
  <path class="cls-5" d="m197.63,91.21c-.67-1.24-1.11-2.57-1.22-3.98-.08-.99.14-5.03,2.02-3.42,1,.86.86,2.73.89,3.98,0,.58,0,1.19-.06,1.77-.03.41-.08.83-.17,1.22-.72.5-1.27.47-1.63-.06-.36-.39-.97.19-.58.58,1.19,1.22,2.74,1.27,3.07-.64.25-1.35.25-2.79.14-4.14-.08-1.08-.08-2.62-.88-3.45-1.19-1.22-2.88-.08-3.35,1.21-.86,2.32-.03,5.25,1.08,7.35.22.47.94.06.69-.41Z"/>
  <path class="cls-5" d="m203.36,66.36c.83,3.89,5.95,4.2,7.47.61.19-.5-.61-.72-.8-.22-1.25,2.93-5.23,2.37-5.87-.61-.11-.5-.91-.3-.8.22Z"/>
  <path class="cls-5" d="m201.73,56.78c1.05-2.35,3.76-3.48,6.25-2.95,2.57.55,4.54,2.54,5.81,4.72.28.47,1,.06.72-.41-1.47-2.51-3.79-4.75-6.78-5.19-2.68-.39-5.56.88-6.72,3.4-.22.52.5.94.72.44Z"/>
  <path class="cls-5" d="m185.51,57.69c.75-1.55,2.05-3.23,3.96-3.2,1.83.03,3.15,1.63,4.07,3.04.28.44,1,.03.72-.41-1.05-1.68-2.63-3.42-4.79-3.45-2.21-.03-3.76,1.8-4.65,3.62-.25.47.47.88.69.41Z"/>
  <path class="cls-5" d="m190.41,70.2c.49,0,.89-1.82.89-4.06s-.4-4.06-.89-4.06-.88,1.82-.88,4.06.4,4.06.88,4.06Z"/>
  <path class="cls-6" d="m192.96,113.88c-.08,1.02-.19,2.43-.25,4.06-.25,5.58-.03,9.8.06,10.93.22,3.67.72,8.48,1.88,14.06-1.11,1.27-2.77,3.15-4.9,5.36-4.04,4.22-6.12,6.38-9.44,8.62-3.71,2.49-6.28,3.26-7.66,3.62-1.74.41-3.4.8-5.42.36-3.29-.75-5.26-3.18-5.98-4.12-1.83-2.32-2.24-4.58-2.99-9-.55-3.23-.66-5.69-.83-10.44-.08-2.26-.19-5.03-.14-8.73.05-4.17.28-9.11.88-14.64.28-2.49.66-5.55,1.27-9.03-.47-.66-.97-1.33-1.49-2.02-.55-.72-1.08-1.41-1.63-2.1-1.41,1.19-2.79,2.4-4.21,3.59-.36.14-1,.36-1.77.28-1.47-.14-2.32-1.16-2.63-1.49-1.36-1.55-1.16-3.51-1.11-3.89,1.91-2.07,3.82-4.11,5.75-6.19.03-1.19.19-2.73.67-4.45.36-1.27.8-2.32,1.22-3.2.36-.72.86-1.52,1.49-2.32,1.13-1.49,2.35-2.54,3.35-3.26-.8.36-1,.36-1.05.3-.14-.22,1.16-1.85,2.99-2.02,1.02-.11,1.83.28,2.38.52.86.41,1.44.94,1.8,1.33,1.71-1.46,3.43-2.93,5.15-4.36.61.36,1.22.77,1.83,1.19,1.41.97,2.68,1.93,3.82,2.87-.41.52-.94,1.1-1.6,1.68-1.11.97-2.21,1.55-3.07,1.93.53.17,1.47.55,1.94,1.46.47.88.28,1.85,0,3.07-.19.83-.44,1.49-.64,1.93.11,1.16.17,2.73-.17,4.5-.53,2.9-1.74,5.05-2.57,6.3-.03,1.08-.06,2.76,0,4.83.22,8.53,1.47,13.53,2.27,19.83.47,3.59.94,8.92.8,15.63.64-.41,1.55-1.08,2.57-1.93,2.6-2.18,4.26-4.36,6.45-7.57,2.16-3.12,3.57-5.44,5.48-8.53,1.19-2.02,3.1-5.08,5.51-8.97Z"/>
  <path class="cls-2" d="m167.8,88.67c-.58,1.27-1.16,2.57-1.74,3.89-1.69,3.98-3.07,7.79-4.21,11.43-.25,5.74-.39,10.55-.5,14.03-.14,5.28.19,11.57.8,24.16.25,5.19.47,8.34,2.91,10.63,2.54,2.37,6.09,2.43,8.08,2.43,10.63-.03,18.57-9.06,20.75-11.68-2.96,5.03-6.34,8.31-8.63,10.24-2.6,2.18-5.95,4.91-11.15,6.27-4.4,1.16-6.39.91-6.92.8-3.79-.91-5.89-4.06-6.64-5.14-1.8-2.68-2.38-5.47-2.71-11.46-.33-6.16.03-7.79.14-16.26.08-8.09-.22-10.38.39-15.99.36-3.29.8-5.99,1.16-7.82-1.08-1.13-2.16-2.26-3.24-3.37-.91.8-1.85,1.57-2.79,2.38-.61.52-1.25,1.05-1.85,1.55-.55.06-1.36.03-2.21-.33-2.21-.94-3.6-3.67-2.9-4.61.44-.64,1.6-.14,3.21-.14,2.77.03,4.62-1.38,8.3-4.03,2.6-1.91,5.59-4.03,9.77-6.99Z"/>
  <path class="cls-5" d="m192.6,113.66c-6.39,8.81-11.12,18.92-19.2,26.43-.39.36.19.94.58.58,8.14-7.57,12.89-17.73,19.34-26.59.33-.42-.39-.83-.72-.42Z"/>
  <path class="cls-5" d="m168.8,161.52c10.96-.72,18.82-9.89,25.4-17.67.33-.41-.25-.99-.58-.58-6.39,7.62-14.14,16.73-24.79,17.45-.55,0-.55.83-.03.8Z"/>
  <path class="cls-5" d="m163.6,83.73c.06,2.18,1.49,4.06,3.6,4.67.53.14.75-.66.22-.8-1.74-.5-2.93-2.07-2.99-3.87-.03-.52-.86-.52-.83,0Z"/>
  <path class="cls-5" d="m164.45,83.48c.28-2.4,4.57-.66,5.73-.06,1.13.58,2.27,1.16,2.52,2.54.19,1.05-.14,2.15-.41,3.18-.14.52.66.75.8.22.39-1.38.8-2.95.22-4.31-.55-1.38-2.08-2.02-3.32-2.62-1.27-.61-2.66-1.05-4.1-.88-.58.08-1.33.22-1.8.61-.5.39-.39.66-.47,1.35-.06.5.77.5.83-.03Z"/>
  <path class="cls-5" d="m172.01,88.97c-.08,2.1.39,4.14-.11,6.24-.47,1.93-1.41,3.73-2.35,5.47-.25.47.47.88.72.41.97-1.82,1.94-3.67,2.43-5.66.53-2.15.05-4.28.14-6.46.03-.55-.8-.55-.83,0Z"/>
  <path class="cls-5" d="m169.55,100.71c-.64,14.55,3.54,28.8,2.88,43.35-.03.52.8.52.83,0,.66-14.55-3.51-28.8-2.88-43.35.03-.53-.8-.53-.83,0Z"/>
  <path class="cls-5" d="m155.96,101.01c.83,1.16,1.71,2.26,2.71,3.29.36.39.94-.19.58-.58-.94-.99-1.8-2.02-2.57-3.12-.33-.44-1.05-.03-.72.41Z"/>
  <path class="cls-5" d="m159.14,104.08c-1.58,8.97-2.35,18.09-2.32,27.2.03,4.53.25,9.08.69,13.59.36,3.84.8,7.87,2.82,11.24,1.83,3.06,5.04,5.38,8.69,5.3.53-.03.53-.86,0-.83-5.12.14-8.41-4.42-9.6-8.89-1.33-4.91-1.44-10.27-1.63-15.33-.42-10.71.33-21.48,2.19-32.03.06-.55-.75-.77-.83-.25Z"/>
  <path class="cls-5" d="m153.91,91.68c-2.6,2.18-5.12,4.47-7.5,6.88-.39.39.22.97.58.58,2.41-2.4,4.9-4.69,7.5-6.88.42-.33-.17-.91-.58-.58Z"/>
  <path class="cls-5" d="m146.16,99.3c-.41,3.2,2.02,5.91,5.26,5.88.53,0,.53-.83,0-.83-2.79.03-4.79-2.32-4.43-5.05.08-.52-.75-.52-.83,0Z"/>
  <path class="cls-5" d="m146.94,99.11c2.9.08,4.92,2.68,4.32,5.5-.11.53.69.75.8.22.75-3.4-1.63-6.43-5.12-6.54-.53,0-.53.83,0,.83Z"/>
  <path class="cls-5" d="m152.39,104.69c3.15-2.87,6.36-5.72,9.44-8.67,1.41-1.35,2.77-2.73,4.04-4.22.69-.8,2.44-2.37,2.46-3.48,0-.14-.08-.3-.19-.36-.06-.03-.11-.06-.14-.06-.17-.08-.39-.08-.5.06-.03.03-.06.06-.08.11-.33.41.25.99.58.58.03-.03.05-.06.08-.11-.17.03-.33.06-.5.06-.06-.25-.14-.25-.25.03-.14.19-.28.39-.44.58-.33.41-.64.83-1,1.24-.55.69-1.16,1.35-1.74,2.02-1.22,1.33-2.49,2.57-3.79,3.78-2.82,2.65-5.7,5.22-8.55,7.84-.42.39.19.97.58.61Z"/>
  <path class="cls-5" d="m152.75,93.23c.19-1.33.39-2.65.58-3.98.14-.99.25-2.1.8-2.98,1.27-2.04,3.07-.58,4.04.8.41.58.8,1.22,1.22,1.79.22.33,1.3,1.52,1.16,1.93.14-.11.28-.19.39-.3h-.14c-.53-.03-.53.8,0,.83h.14c.19,0,.36-.14.39-.3.19-.69-.28-1.1-.64-1.66-.69-1.02-1.36-2.07-2.08-3.07-.75-1.02-1.71-2.02-3.1-1.88-1.33.14-2.13,1.16-2.55,2.35-.69,1.96-.75,4.2-1.05,6.24-.06.52.75.75.83.22Z"/>
  <path class="cls-5" d="m154.05,90.11c.75,1.46,1.99,2.95,3.76,3.07,1.47.11,2.85-.72,3.24-2.15.14-.52-.66-.75-.8-.22-.36,1.33-1.83,1.82-3.04,1.41-1.16-.41-1.91-1.44-2.43-2.49-.25-.5-.97-.08-.72.39Z"/>
  <path class="cls-5" d="m155.07,84.72c.14-1.35,1.69-1.71,2.74-1.35,1.11.36,1.96,1.35,2.74,2.15.61.64,1.8,1.52,1.96,2.4.22,1.19-1.27,1.99-2.27,2.29-.5.14-.31.94.22.8,1.22-.36,2.99-1.44,3.18-2.87.08-.58-.28-.88-.66-1.3-.78-.83-1.52-1.63-2.32-2.43-1.08-1.1-2.46-2.29-4.12-2.02-1.24.19-2.16,1.02-2.3,2.29-.05.55.77.55.83.03Z"/>
  <path class="cls-5" d="m156.57,82.68c.39-.44.58-1.02.94-1.46.89-1.1,2.27-.08,3.18.58,1.77,1.24,3.65,3.51,2.05,5.66-.3.44.42.86.72.41,1.71-2.32.03-5-1.94-6.49-.91-.69-2.3-1.93-3.54-1.57-1.11.3-1.3,1.57-1.99,2.32-.36.36.22.94.58.55Z"/>
  <path class="cls-5" d="m159.36,80.16c.97-1.19,2.24-2.43,3.74-1.19,1,.8,1.63,1.93,1.99,3.12.17.5.94.3.8-.22-.47-1.6-1.55-3.45-3.15-4.11-1.63-.66-2.99.64-3.96,1.82-.33.39.25.99.58.58Z"/>
  <path class="cls-5" d="m165.48,80.28c1.71-1.46,3.43-2.93,5.15-4.36.42-.36-.19-.94-.58-.58-1.71,1.46-3.43,2.93-5.15,4.36-.41.36.19.94.58.58Z"/>
  <path class="cls-5" d="m171.59,83.81c1.63-1.19,3.21-2.46,4.68-3.84.39-.36-.19-.94-.58-.58-1.44,1.33-2.93,2.57-4.51,3.7-.44.3-.03,1.02.42.72Z"/>
  <path class="cls-4" d="m184.02,49.88c-8.4,0-15.21,6.8-15.21,15.18s6.81,15.18,15.21,15.18,15.21-6.8,15.21-15.18-6.81-15.18-15.21-15.18Zm-18.21,15.18c0-10.04,8.16-18.18,18.21-18.18s18.21,8.14,18.21,18.18-8.16,18.18-18.21,18.18-18.21-8.14-18.21-18.18Z"/>
  <path class="cls-5" d="m173.89,67.1c6.14-3.92,12.42-7.62,18.84-11.1.47-.25.06-.97-.41-.72-6.42,3.45-12.7,7.15-18.84,11.1-.44.3-.03,1.02.42.72Z"/>
  <path class="cls-5" d="m174.58,74.34c5.06-3.7,10.18-7.26,15.41-10.74.44-.3.03-1.02-.42-.72-5.2,3.48-10.35,7.07-15.41,10.74-.44.3-.03,1.02.41.72Z"/>
</svg>